<svg width="1024" height="1024" viewBox="0 0 1024 1024" xmlns="http://www.w3.org/2000/svg" desc="mono sharp 折线, otsu=129">
<path fill="rgb(0,0,0)" stroke="rgb(0,0,0)" stroke-width="1" opacity="1" d="M 169 171 L 174.5 172 L 175.5 171 L 221.5 171 L 227.5 172 L 228.5 171 L 287.5 171 L 289.5 171 Q 304.4 169.4 313 172 L 313 197.5 L 312.5 198 L 196 198 L 196 318.5 L 195.5 319 L 169 319 L 169 171 Z " />
<path fill="rgb(0,0,0)" stroke="rgb(0,0,0)" stroke-width="1" opacity="1" d="M 723.5 171 L 757.5 172 L 765.5 171 L 771.5 172 L 780.5 171 L 791.5 172 L 794.5 171 L 807.5 172 L 811.5 171 L 818.5 172 L 827.5 171 L 833.5 172 L 834.5 171 L 855 171 L 855 318.5 L 854.5 319 L 828 319 L 828 198 L 712.5 198 L 712 197.5 L 712 172 L 723.5 171 Z " />
<path fill="rgb(0,0,0)" stroke="rgb(0,0,0)" stroke-width="1" opacity="1" d="M 225 227 L 355.5 227 L 356 227.5 L 356 254 L 251 254 L 251 358.5 L 250.5 359 L 225 359 L 225 227 Z " />
<path fill="rgb(0,0,0)" stroke="rgb(0,0,0)" stroke-width="1" opacity="1" d="M 668 227 L 800 227 L 800 359 L 773.5 359 L 773 358.5 L 773 254 L 668.5 254 L 668 253.5 L 668 227 Z " />
<path fill="rgb(0,0,0)" stroke="rgb(0,0,0)" stroke-width="1" opacity="1" d="M 680.5 398 L 704 398 L 704 434 L 759.5 434 L 764 433 L 764 453.5 L 762.5 455 L 761.5 454 L 704 454 L 704 483 L 752 483 L 752 504 L 633.5 504 L 633 503.5 L 633 483 L 680 483 L 680 454 L 627.5 454 L 624 456.5 L 577 532 L 613.5 527 L 620 525 L 621 545 L 546.5 557 L 541 536 Q 549.9 533.9 555 526.5 Q 568.8 511 578 492 Q 555.8 491.4 539 496 L 536 481.5 L 533 475.5 L 540 470.5 Q 561.6 440.2 573 401 L 598 409.5 L 564 469.5 L 563 474 L 587.5 474 L 590 471.5 L 604 442 L 625 451 L 625 434.5 L 625.5 434 L 679.5 434 L 681 432.5 L 681 399.5 L 680.5 398 Z " />
<path fill="rgb(0,0,0)" stroke="rgb(0,0,0)" stroke-width="1" opacity="1" d="M 363.5 400 L 366 401.5 L 389 435.5 L 377 444.5 L 378.5 445 L 379.5 444 L 394.5 444 L 405.5 445 L 409.5 444 L 410.5 445 L 423.5 445 L 429 435.5 L 442.5 401 L 466 409 L 463 417.5 L 448 443.5 L 452.5 445 L 454.5 444 L 463.5 445 L 464.5 444 L 479.5 444 L 482 445 L 482 517.5 L 483 526 L 330 526 L 330 445.5 L 331.5 444 L 366 444 L 345 411 L 363.5 400 Z M 353 465 L 353 505 L 460 505 L 460 465 L 353 465 Z " />
<path fill="rgb(0,0,0)" stroke="rgb(0,0,0)" stroke-width="1" opacity="1" d="M 639 524 L 747 524 L 747 622 L 725 622 L 725 610.5 L 723.5 609 L 660 609 L 660 622 L 639 622 L 639 524 Z M 660 544 L 660 589 L 724 590 L 725 589 L 725 545 L 721 544 L 660 544 Z " />
<path fill="rgb(0,0,0)" stroke="rgb(0,0,0)" stroke-width="1" opacity="1" d="M 408.5 531 L 413 534.5 L 415 537.5 L 436 568.5 L 417.5 580 L 392 542 L 408.5 531 Z " />
<path fill="rgb(0,0,0)" stroke="rgb(0,0,0)" stroke-width="1" opacity="1" d="M 482.5 539 Q 504.3 561 519 589 L 516.5 589 Q 510.4 597.4 499.5 601 Q 484.3 574.3 464 552.5 L 482.5 539 Z " />
<path fill="rgb(0,0,0)" stroke="rgb(0,0,0)" stroke-width="1" opacity="1" d="M 320.5 543 L 342 548 L 330 591.5 L 323 609.5 L 320.5 612 L 298 603.5 L 310 579.5 L 320.5 543 Z " />
<path fill="rgb(0,0,0)" stroke="rgb(0,0,0)" stroke-width="1" opacity="1" d="M 354 545 L 377.5 545 L 378 546.5 L 377 547.5 L 377 592.5 L 380.5 599 L 382.5 600 L 438.5 600 L 444 595.5 Q 448.8 587.1 449 575 L 473 586.5 Q 469.8 603.2 462 614 L 455.5 618 L 438.5 621 L 383.5 621 L 366.5 619 L 358 613.5 L 355 607.5 L 354 599.5 L 354 545 Z " />
<path fill="rgb(0,0,0)" stroke="rgb(0,0,0)" stroke-width="1" opacity="1" d="M 619.5 570 L 622 570.5 L 622 582.5 L 623 591 Q 580.8 598.2 544 611 L 537 588 L 607.5 574 L 619.5 570 Z " />
<path fill="rgb(0,0,0)" stroke="rgb(0,0,0)" stroke-width="1" opacity="1" d="M 225 665 L 250.5 665 L 251 665.5 L 251 771 L 355.5 771 L 356 771.5 L 356 798 L 225 798 L 225 665 Z " />
<path fill="rgb(0,0,0)" stroke="rgb(0,0,0)" stroke-width="1" opacity="1" d="M 773 665 L 799.5 665 L 800 665.5 L 800 798 L 668.5 798 L 668 797.5 L 668 771 L 773 771 L 773 665 Z " />
<path fill="rgb(0,0,0)" stroke="rgb(0,0,0)" stroke-width="1" opacity="1" d="M 169 705 L 195.5 705 L 196 705.5 L 196 826 L 312.5 826 L 313 826.5 L 313 853 L 169 853 L 169 705 Z " />
<path fill="rgb(0,0,0)" stroke="rgb(0,0,0)" stroke-width="1" opacity="1" d="M 828 705 L 854.5 705 L 855 705.5 L 855 853 L 712.5 853 L 712 852.5 L 712 826 L 828 826 L 828 705 Z " />
</svg>
